<svg width="56" height="56" viewBox="0 0 56 56" fill="none" xmlns="http://www.w3.org/2000/svg">
<path d="M31.9908 18.4169H31.5937H24.8388H24.432L24.2814 18.039C23.4846 16.0388 22.8565 14.3927 22.4061 13.1369C21.9614 11.897 21.6757 10.9993 21.583 10.519L21.4196 9.67279L22.2699 9.81325C22.3184 9.82126 22.37 9.83179 22.4242 9.8452L22.4244 9.84524C23.0552 10.0013 23.7439 10.4657 24.2094 11.0471L24.2094 11.0471C24.4592 11.3591 24.92 11.6463 25.5708 11.857C26.2112 12.0643 26.9801 12.1792 27.774 12.1892C28.5672 12.1991 29.3639 12.1039 30.0583 11.9065C30.7592 11.7073 31.3151 11.4157 31.6712 11.0629L31.9908 18.4169ZM31.9908 18.4169L32.146 18.0514M31.9908 18.4169L32.146 18.0514M32.146 18.0514C33.1281 15.738 33.9467 13.8847 34.6032 12.4871L34.6032 12.4871M32.146 18.0514L34.6032 12.4871M34.6032 12.4871C34.7753 12.1207 34.881 11.7258 34.7953 11.3441M34.6032 12.4871L34.7953 11.3441M34.7953 11.3441C34.7005 10.9222 34.407 10.6568 34.0824 10.5087M34.7953 11.3441L34.0824 10.5087M34.0824 10.5087C33.3118 10.1572 32.3304 10.4095 31.6712 11.0629L34.0824 10.5087ZM32.187 19.0922L32.0106 18.8119H31.6793H24.7185H24.4053L24.2262 19.0688L15.9959 30.8784L15.9868 30.8915L15.9783 30.9051C15.6125 31.4947 15.3114 32.1244 15.0805 32.7832C13.3754 37.6447 15.766 43.0517 20.4718 44.8443L20.4762 44.8461L20.4762 44.8462L20.4889 44.8508C22.9893 45.7525 25.4577 46.2059 27.8943 46.2059C30.3314 46.2059 32.8173 45.7523 35.3368 44.8562L35.3369 44.8563L35.3488 44.8518L35.9588 44.6201L35.7484 44.0662L35.9588 44.6201C36.6042 44.3749 37.2175 44.0484 37.7856 43.6485L37.7857 43.6484C41.62 40.948 42.615 35.5403 40.0325 31.5535L32.187 19.0922ZM24.4477 10.7752L24.4477 10.7752C24.781 11.1915 25.3555 11.4298 25.9036 11.5713C26.4821 11.7206 27.1618 11.7944 27.8399 11.7954C28.5186 11.7963 29.2201 11.7244 29.8425 11.568C30.4501 11.4153 31.052 11.165 31.4613 10.7595L31.4613 10.7594C32.2681 9.95988 33.3823 9.76732 34.198 10.1394C34.656 10.3483 34.9487 10.6935 35.0756 11.109C35.2042 11.5301 35.1761 12.0725 34.8916 12.6783C34.2286 14.0897 33.4003 15.9667 32.4081 18.3052L32.2856 18.5938L32.4527 18.8592L40.2928 31.3121L40.2928 31.3122L40.2972 31.3189C43.0085 35.5001 41.9462 41.1753 37.9516 43.9888L37.9515 43.9888C37.3614 44.4046 36.7249 44.743 36.0566 44.9969L35.438 45.2315C32.8658 46.146 30.3514 46.6008 27.8943 46.6008C25.4363 46.6008 22.9382 46.1456 20.387 45.2261L20.3735 45.221C20.3732 45.2209 20.3728 45.2208 20.3724 45.2206C15.5131 43.3687 12.9841 37.7402 14.7754 32.6326L14.7754 32.6326C15.0149 31.9498 15.3264 31.2966 15.7277 30.6499L23.9493 18.851L24.1341 18.5858L24.0143 18.2856C23.0525 15.8751 22.3463 14.0186 21.8813 12.662C21.6486 11.9834 21.4791 11.4377 21.3683 11.0147C21.254 10.5781 21.2145 10.3163 21.2145 10.1852C21.2145 9.79897 21.3615 9.61679 21.5281 9.51988C21.727 9.40423 22.0608 9.35219 22.4897 9.4583C23.1573 9.62348 23.9153 10.1102 24.4477 10.7752Z" stroke="#344054" stroke-width="1.2"/>
<circle cx="30" cy="35" r="7" fill="#FFD983"/>
<path d="M31.1127 30.981H26.444C26.0312 30.981 25.6354 31.1401 25.3436 31.4233C25.0517 31.7067 24.8877 32.0908 24.8877 32.4913C24.8877 32.8918 25.0517 33.2759 25.3436 33.5592C25.6354 33.8424 26.0312 34.0015 26.444 34.0015H29.5565C29.9692 34.0015 30.3651 34.1607 30.6569 34.4439C30.9488 34.7271 31.1127 35.1112 31.1127 35.5117C31.1127 35.9123 30.9488 36.2964 30.6569 36.5796C30.3651 36.8628 29.9692 37.0219 29.5565 37.0219H24.8877" stroke="#344054" stroke-width="1.2" stroke-linecap="round" stroke-linejoin="round"/>
<path d="M28 38.5307V29.4693" stroke="#344054" stroke-width="1.2" stroke-linecap="round" stroke-linejoin="round"/>
<circle cx="28" cy="34" r="7.4" stroke="#344054" stroke-width="1.2"/>
</svg>
