<?xml version="1.0" standalone="no"?>
<!DOCTYPE svg PUBLIC "-//W3C//DTD SVG 20010904//EN"
 "http://www.w3.org/TR/2001/REC-SVG-20010904/DTD/svg10.dtd">
<svg version="1.0" xmlns="http://www.w3.org/2000/svg"
 width="284.000000pt" height="240.000000pt" viewBox="0 0 284.000000 240.000000"
 preserveAspectRatio="xMidYMid meet">
<metadata>
Created by potrace 1.10, written by Peter Selinger 2001-2011
</metadata>
<g transform="translate(0.000000,240.000000) scale(0.100000,-0.100000)"
fill="#000000" stroke="none">
<path d="M1274 2052 c-20 -13 -34 -50 -34 -91 0 -23 -2 -41 -3 -41 -2 0 -69
27 -148 61 -79 33 -148 61 -154 62 -5 1 -113 -40 -238 -92 -165 -68 -233 -101
-244 -118 -15 -23 -11 -35 81 -256 53 -128 96 -235 96 -239 0 -5 -24 -8 -52
-8 -59 0 -106 -23 -134 -65 -16 -24 -15 -33 11 -178 72 -403 106 -573 120
-594 37 -56 4 -54 746 -51 639 3 686 4 710 21 27 18 42 45 56 105 l8 33 140
-163 c123 -143 144 -163 173 -166 60 -6 110 48 96 104 -6 22 -242 309 -286
347 -11 9 -30 17 -43 17 -12 0 -29 8 -38 18 -18 20 -12 81 18 182 9 32 14 74
11 100 -2 25 2 94 10 153 8 60 11 120 8 134 -11 40 -59 63 -136 63 l-67 0 4
28 c8 42 35 264 35 282 0 23 -217 294 -243 302 -22 8 -436 58 -473 58 -10 0
-24 -4 -30 -8z m283 -37 c116 -14 215 -25 220 -25 6 0 4 -43 -3 -102 -17 -142
-11 -151 116 -162 41 -4 84 -9 95 -12 l21 -5 -19 -167 c-10 -92 -21 -181 -23
-198 l-4 -30 -50 10 c-28 5 -50 15 -50 20 0 6 9 58 20 116 11 58 20 112 20
121 0 13 -35 22 -179 47 -98 18 -185 32 -193 32 -16 0 -62 -75 -54 -89 3 -5
32 -19 63 -31 32 -13 59 -24 60 -25 2 -1 -8 -29 -21 -63 l-24 -62 41 -10 c23
-6 48 -13 55 -15 6 -2 12 -20 12 -39 0 -19 3 -41 6 -50 3 -9 2 -16 -4 -16 -5
0 -13 20 -16 44 -7 45 -7 45 -54 52 -26 3 -50 8 -54 10 -4 3 2 30 12 60 11 31
18 60 15 64 -2 4 -34 15 -70 25 -36 9 -65 19 -65 22 0 2 9 22 21 44 11 23 19
42 17 44 -2 1 -31 5 -64 7 l-61 4 -7 -65 c-3 -37 -6 -88 -6 -116 0 -27 -3 -67
-7 -88 l-6 -38 -76 5 c-42 2 -80 5 -86 5 -5 1 -79 -1 -163 -3 l-153 -5 7 37
c13 75 22 80 100 61 35 -9 44 -16 44 -33 0 -38 14 -49 51 -39 39 11 79 10 98
-1 10 -7 11 -4 2 12 -17 31 -27 34 -67 17 -57 -24 -62 -21 -76 45 -13 64 -14
65 -68 51 -92 -24 -90 -24 -90 6 0 16 -3 38 -6 50 l-6 21 -51 -24 c-29 -13
-53 -28 -55 -33 -2 -5 14 -42 35 -83 21 -40 39 -76 41 -80 2 -5 -31 -8 -72 -8
-64 0 -78 3 -83 18 -3 9 -46 114 -94 232 -49 119 -89 223 -89 232 0 8 6 20 12
25 27 20 453 192 459 185 4 -4 22 -43 39 -87 35 -88 54 -115 81 -115 9 0 54
15 98 34 l81 34 -6 -66 c-3 -37 -12 -72 -19 -78 -8 -5 -90 -37 -184 -69 l-171
-59 0 -53 c0 -60 -3 -58 97 -44 l52 7 10 -59 c6 -33 13 -62 15 -65 3 -2 26 1
52 7 41 11 48 10 59 -6 33 -45 44 -57 45 -47 0 6 11 100 25 210 14 109 30 239
35 287 6 49 12 99 15 113 3 13 7 35 10 48 5 25 24 34 60 29 11 -2 115 -14 232
-28z m-454 -85 c26 -12 47 -25 47 -30 0 -9 -62 -30 -90 -30 -18 0 -40 32 -46
67 -4 22 -2 25 19 19 13 -3 44 -15 70 -26z m771 -97 l46 -58 -33 -3 c-18 -2
-44 1 -58 6 -22 9 -24 14 -21 61 2 28 8 51 12 51 5 0 29 -26 54 -57z m-708
-132 c-3 -5 1 -12 10 -15 10 -4 13 -2 8 6 -5 7 -3 8 5 3 9 -5 11 -19 6 -44 -4
-20 -8 -43 -8 -51 0 -8 -13 -30 -28 -48 -17 -18 -32 -50 -35 -73 -8 -49 -26
-58 -70 -34 -27 14 -34 25 -36 54 -2 29 -8 37 -26 39 -12 2 -20 7 -17 12 3 5
-8 2 -25 -7 -34 -17 -60 -12 -60 12 0 8 -4 15 -10 15 -5 0 -10 5 -10 12 0 6 3
9 6 5 3 -3 18 5 32 19 15 13 31 24 37 24 5 0 3 -5 -5 -10 -17 -11 -10 -13 14
-4 9 3 13 11 9 17 -3 6 -1 7 6 3 15 -10 73 3 65 15 -5 8 18 14 40 10 16 -3 46
11 41 19 -3 4 5 6 17 2 13 -3 19 -1 15 6 -4 5 -1 13 5 15 19 8 20 8 14 -2z
m445 -71 c11 0 17 -4 14 -10 -3 -5 -2 -10 4 -10 5 0 18 -3 28 -6 15 -5 16 -4
3 6 -12 10 -12 11 5 4 11 -4 32 -7 48 -7 15 0 27 -4 27 -8 0 -5 15 -6 33 -3
23 4 28 3 18 -4 -11 -8 -4 -9 23 -7 28 3 36 0 33 -10 -4 -9 1 -11 16 -8 22 5
22 5 2 -11 -11 -10 -15 -15 -9 -12 7 3 11 -8 11 -29 0 -20 -4 -32 -10 -28 -6
4 -8 -5 -4 -24 3 -17 3 -43 -2 -58 l-7 -29 -14 33 c-16 39 -50 64 -76 55 -10
-4 -38 -25 -61 -47 -47 -45 -64 -44 -88 3 -11 22 -13 35 -5 49 13 26 13 61 -1
61 -6 0 -9 6 -6 14 4 9 -2 12 -19 10 -13 -1 -26 2 -30 7 -3 5 -10 6 -16 3 -6
-4 -8 -2 -5 3 4 6 -1 14 -10 17 -26 10 18 46 48 39 20 -4 21 -3 9 7 -13 10
-12 11 3 6 10 -3 28 -6 38 -6z m-176 -32 c5 4 4 0 -1 -8 -12 -21 -17 -62 -7
-69 4 -3 -12 -27 -37 -52 l-46 -46 4 61 c4 55 24 116 38 116 3 0 2 -6 -1 -12
-3 -7 0 -5 7 4 8 11 16 14 24 8 6 -6 15 -6 19 -2z m-270 -105 c-6 -31 -17 -59
-23 -61 -15 -5 -15 15 -1 59 10 29 27 59 33 59 1 0 -3 -26 -9 -57z m-379 10
c-6 -15 -5 -15 13 1 20 18 20 18 16 -3 -2 -11 0 -21 6 -21 5 0 9 -7 9 -15 0
-8 7 -15 14 -15 13 0 13 -4 0 -35 -7 -19 -14 -46 -14 -60 0 -14 -4 -25 -9 -25
-12 0 -32 60 -24 73 3 5 1 7 -4 4 -6 -4 -14 0 -17 9 -3 8 -2 13 2 10 5 -3 9 1
9 8 0 8 -6 12 -14 9 -9 -3 -11 0 -7 10 3 8 1 18 -5 21 -6 4 -4 14 7 26 22 23
26 24 18 3z m742 -22 c2 -6 8 -9 13 -5 5 3 9 -2 9 -10 0 -22 -13 -20 -35 4
-30 33 -39 23 -10 -12 22 -26 25 -37 20 -70 -6 -31 -4 -38 9 -38 9 0 16 -5 16
-11 0 -6 8 -8 19 -4 10 3 24 -1 31 -10 7 -8 17 -12 24 -8 6 3 8 3 4 -1 -3 -4
0 -19 7 -33 12 -23 11 -29 -16 -66 -37 -51 -28 -63 14 -16 83 91 188 130 242
89 6 -5 30 -8 55 -8 25 0 52 -1 60 -1 22 -1 108 -82 119 -113 16 -44 15 -208
-1 -248 -8 -19 -18 -48 -22 -63 -4 -17 -17 -32 -34 -39 -23 -10 -92 -73 -92
-84 0 -2 12 1 26 7 22 8 30 6 44 -8 9 -10 15 -24 12 -31 -2 -7 2 -10 11 -6 13
5 15 -3 10 -48 -3 -29 -6 -54 -8 -56 -1 -1 -22 -3 -46 -5 l-44 -2 -8 70 c-4
38 -12 72 -18 76 -6 3 -48 9 -94 11 -63 4 -91 11 -113 27 -17 11 -33 21 -36
21 -4 0 -20 14 -36 30 -16 17 -26 30 -23 30 4 0 0 6 -9 13 -29 23 -49 108 -47
206 2 81 0 94 -19 114 -12 13 -22 29 -22 35 0 6 -7 29 -16 51 -19 49 -62 71
-133 71 -50 0 -51 1 -40 21 8 16 8 20 -1 14 -9 -6 -9 -2 0 16 26 50 52 79 63
73 7 -4 9 -4 5 1 -4 4 -3 14 2 20 13 15 103 11 108 -4z m-548 -29 c0 -10 -7
-12 -22 -8 -13 3 -32 6 -43 7 -17 1 -16 2 5 9 37 11 60 8 60 -8z m831 -37 c10
-16 21 -42 24 -57 6 -25 4 -27 -32 -34 -21 -4 -55 -15 -75 -25 -49 -25 -53
-24 -54 11 -1 17 3 27 8 24 5 -3 4 4 -4 15 -12 20 -9 25 30 62 50 47 78 48
103 4z m272 -52 c-18 -2 -48 -2 -65 0 -18 2 -4 4 32 4 36 0 50 -2 33 -4z m52
-46 c12 -19 14 -38 8 -91 l-8 -68 -33 44 c-17 23 -52 57 -77 73 -70 47 -61 65
31 65 56 0 65 -3 79 -23z m-669 -32 c12 -7 31 -42 43 -76 16 -41 29 -63 43
-67 13 -3 17 -9 12 -21 -4 -9 -9 -51 -12 -94 -4 -72 -2 -83 28 -143 55 -111
171 -181 291 -172 27 1 49 1 49 -2 0 -3 7 -50 15 -105 8 -55 15 -111 15 -125
l0 -25 -666 5 -665 5 -19 24 c-10 14 -15 31 -12 40 3 8 1 12 -5 8 -12 -8 -38
137 -27 154 4 7 3 9 -3 6 -11 -7 -25 70 -19 106 2 12 1 15 -2 7 -3 -8 -11 14
-18 50 -16 84 -17 103 -2 94 7 -4 8 -3 4 5 -4 6 -11 9 -15 7 -4 -3 -17 56 -30
130 -26 146 -23 176 21 194 13 5 232 9 488 9 391 1 469 -1 486 -14z m616 -529
c19 -22 24 -36 18 -47 -8 -11 -17 -7 -47 24 -32 31 -35 39 -23 47 21 13 21 13
52 -24z m230 -274 c81 -95 148 -177 148 -182 0 -10 -21 -15 -55 -11 -11 1 -32
14 -47 28 l-28 27 27 29 c27 29 15 29 -18 0 -15 -12 -21 -9 -53 28 -19 23 -33
45 -31 49 3 4 -3 14 -13 21 -16 13 -16 12 -2 -6 15 -20 14 -20 -8 -1 -12 11
-21 21 -19 22 2 2 -25 34 -60 71 -65 70 -80 112 -50 142 10 10 17 7 36 -16 14
-15 91 -106 173 -201z m-269 74 c6 -15 -32 -56 -51 -56 -7 0 -12 6 -12 13 0 6
-3 22 -6 35 -6 20 -3 22 29 22 21 0 37 -6 40 -14z"/>
<path d="M1361 1934 c-76 -64 -2 -192 89 -154 41 17 60 46 60 91 0 29 -7 43
-31 63 -17 15 -43 26 -59 26 -16 0 -42 -11 -59 -26z m105 -49 c9 -35 -1 -53
-31 -61 -35 -9 -53 1 -61 31 -8 34 11 55 52 55 28 0 35 -5 40 -25z"/>
<path d="M611 1814 c-25 -21 -31 -34 -31 -64 0 -58 35 -95 90 -95 55 0 90 37
90 95 0 30 -6 43 -31 64 -17 15 -43 26 -59 26 -16 0 -42 -11 -59 -26z m101
-46 c16 -18 16 -21 2 -44 -30 -44 -98 -28 -92 22 6 54 53 66 90 22z"/>
<path d="M1812 1255 c-53 -16 -88 -38 -131 -84 -44 -46 -61 -88 -61 -151 0
-130 108 -240 234 -240 44 0 132 36 163 67 67 67 92 180 57 261 -10 23 -22 42
-26 42 -5 0 -8 6 -8 14 0 8 -13 23 -30 33 -16 9 -30 20 -30 24 0 11 -84 49
-106 48 -10 0 -38 -6 -62 -14z m89 -36 c50 -11 51 -11 45 -43 -4 -17 -9 -73
-13 -123 -3 -51 -9 -93 -13 -93 -4 0 -10 32 -14 72 -7 77 -23 113 -56 123 -13
4 -20 15 -21 33 l-1 27 -10 -28 c-8 -22 -13 -26 -24 -16 -11 9 -14 8 -14 -3 0
-8 -6 -15 -12 -16 -7 0 -26 -5 -43 -10 -27 -9 -25 -10 27 -11 106 -2 117 -15
138 -170 13 -94 8 -104 -45 -94 -38 7 -64 20 -92 46 -13 11 -23 16 -23 10 0
-19 59 -62 93 -67 72 -11 94 -12 95 -2 4 54 20 140 29 166 8 21 11 55 13 118
1 28 5 52 9 52 12 0 58 -53 75 -87 21 -41 21 -125 0 -169 -23 -48 -86 -101
-136 -115 -120 -32 -257 69 -258 191 0 96 68 189 151 208 24 5 45 10 46 11 1
1 25 -4 54 -10z"/>
<path d="M1965 900 c-16 -17 -24 -30 -19 -30 13 0 59 48 52 55 -2 3 -17 -9
-33 -25z"/>
</g>
</svg>
